# xmcd CD database file
#
# Track frame offsets:
#	150
#	17804
#	31817
#	48382
#	71141
#	89942
#	107282
#	126164
#	145084
#	166907
#	177106
#	191163
#	220513
#	242819
#
# Disc length: 3580 seconds
#
# Revision: 3
# Processed by: cddbd v1.4PL0 Copyright (c) Steve Scherf et al.
# Submitted via: CDex 1.50
#
DISCID=c20dfa0e
DTITLE=Various Artist - Saint Germain des Pres Cafè III
DYEAR=2003
DGENRE=Jazz
TTITLE0=Nuspirit Helsinki-Trying
TTITLE1=Triby Trio feaut. Joseph M.-High Jazz
TTITLE2=Infracom Presents (ReiJazz)-Puket Night
TTITLE3=Big Bang-Ping Pong
TTITLE4=Crusho-Kool Bavaria
TTITLE5=Eric Pierre feaut. Lady Cattlea-Channel Zero
TTITLE6=Patchworks-Summertime
TTITLE7=DJ Cam-Un etè a Paris
TTITLE8=Briskey-Conchita's Cabina
TTITLE9=Variety Lal-R. Bvar
TTITLE10=Llorca-The novel sound
TTITLE11=Hardcandy-Moonlight(Remix)
TTITLE12=Fertile Ground-Take Me Higher
TTITLE13=De-Phazz-Downtown Tezacorte
EXTD=YEAR: 2003
EXTT0=
EXTT1=
EXTT2=
EXTT3=
EXTT4=
EXTT5=
EXTT6=
EXTT7=
EXTT8=
EXTT9=
EXTT10=
EXTT11=
EXTT12=
EXTT13=
PLAYORDER=
